#!OML:ASF F:\VICON\USERDATA\INSTALL\rory3\rory3.ASF
:FULLY-SPECIFIED
:DEGREES
80
root -5.094695858484832 18.03533643569723 -3.575080986019172 -172.43053355799088 -4.686664005312714 -175.80538743656098
lfemur -27.717229035784072 -19.16035521132191 -12.760329716410743
ltibia 28.1266683777768
lfoot 21.500449224369866 -49.38749260827827
ltoes 41.48937866137892
rfemur 18.37949379351378 -11.83441078434586 22.044273041771575
rtibia 9.095142604496926
rfoot 29.33920556181243 -30.08213595442197
rtoes 21.064835536879254
lowerback -11.759816122208356 16.0782627979023 14.355687466481243
upperback -17.279111891895525 18.98107288153956 1.399921174422833
thorax -8.40440199205127 6.775860103683662 -4.74137844133893
lowerneck -7.025314725171196 -21.485127898578636 -5.684160310757311
upperneck 14.368255481979176 -29.454663134443994 3.9605442231966093
head 6.738916989430587 -14.42626622200807 -0.635856393799807
lclavicle -4.98761868066392e-15 -1.009545213093443e-14
lhumerus 67.13883548974235 8.538640281350595 63.05681042191933
lradius 77.33496655387248
lwrist 23.106542745052383
lhand -24.361796952754666 25.59448495454619
lfingers 7.125020000000001
lthumb -171.44037435110167 -221.7936091715281
rclavicle -5.017392554001267e-15 -1.021038380256079e-14
rhumerus 104.49654451588933 17.524366070936075 -51.76375348684755
rradius 51.54335606122399
rwrist 2.5475455287462445
rhand -44.33793068591102 27.207884629505294
rfingers 7.125020000000001
rthumb -18.472212826717325 2.5055437673657206
81
root -5.083308747055356 18.032017338153974 -3.6467511204163805 -172.1675611789026 -5.694254341431261 -176.1046986229651
lfemur -27.957393469903984 -19.11364482829508 -13.05889487395618
ltibia 28.825544430251732
lfoot 21.76768641483362 -49.611420287093075
ltoes 41.00298214731451
rfemur 18.844660128470508 -11.715267069564323 22.076489492431655
rtibia 8.227862121237177
rfoot 30.682679869905304 -30.861134267678224
rtoes 24.00711640717947
lowerback -12.324132379323192 15.824956810503156 14.231089247512989
upperback -17.560231741861273 18.956835704198006 0.9427034379301089
thorax -8.22989175228778 6.779215846227704 -5.11470508395546
lowerneck -7.138526308340172 -21.38902773819265 -5.973074860994704
upperneck 14.913639920356461 -29.47810091935774 3.7246589149873257
head 6.902897447529128 -14.42974307329373 -0.7160473082529872
lclavicle -4.9964923853301584e-15 -1.0037144158794555e-14
lhumerus 67.82430518961506 9.074697954337779 62.61782136619482
lradius 77.51688909891641
lwrist 21.00036022076098
lhand -24.397551703786007 25.5752712689945
lfingers 7.125020000000001
lthumb -171.31446405601622 -222.37073892798537
rclavicle -5.024993002601786e-15 -1.0216496755649479e-14
rhumerus 103.90673343276191 17.718025233219983 -52.32645925698333
rradius 50.22362488759509
rwrist 2.2007919783991774
rhand -45.903749929130406 29.088685452561215
rfingers 7.125020000000001
rthumb -20.047858821858238 4.3098036953650976
82
root -5.074293644471593 18.034578981927655 -3.695478520411972 -171.70770706681986 -6.281340662231507 -176.070484424057
lfemur -28.180882095154892 -19.04564862892737 -13.405037214689068
ltibia 29.41573964577824
lfoot 21.96540347189599 -49.844406463465084
ltoes 40.82078942916212
rfemur 19.083253495266938 -11.744459797195706 21.97741358510911
rtibia 7.718160476185393
rfoot 31.59854878287278 -31.673789051618726
rtoes 26.046588037065536
lowerback -12.732946432632444 16.03069704570054 14.2038757707309
upperback -17.853475596184445 18.883190004538868 0.4217430597788536
thorax -8.160007351514384 6.6269434373379035 -5.446135848274138
lowerneck -7.1522653362062 -21.201657858144543 -6.184967783913092
upperneck 15.386989455958552 -29.458542379847625 3.5709362848587185
head 7.028868090182782 -14.423447180055014 -0.7581030120679121
lclavicle -5.0063486149486704e-15 -9.956360900159714e-15
lhumerus 68.25541660873407 9.418464878056191 61.71747157710213
lradius 77.42728357357294
lwrist 18.89044336926744
lhand -24.08283641924441 25.78527299967829
lfingers 7.125020000000001
lthumb -171.27750811143298 -224.11356252108448
rclavicle -5.0225053007354894e-15 -1.0214692102993303e-14
rhumerus 103.13423763502485 17.969113860520224 -53.19296545482705
rradius 48.35942496054196
rwrist 1.4784956977637371
rhand -46.890248519981036 30.56772177607457
rfingers 7.125020000000001
rthumb -21.240403027749124 5.541344812188353
83
root -5.063591209279275 18.04005597773854 -3.7048135519616956 -170.44382402147627 -6.573665588339075 -175.69584304718904
lfemur -28.346957377266442 -19.013673066688153 -13.746878423555192
ltibia 29.855285961701053
lfoot 22.28205113209134 -49.383884848274576
ltoes 41.12950002241506
rfemur 19.162096998954432 -11.806493300889578 21.832635629787145
rtibia 7.444057904501044
rfoot 32.38425925054281 -32.40684384902114
rtoes 27.61250055643075
lowerback -13.03777512704783 16.048384650759925 14.13203160619084
upperback -18.101826871378186 18.856631234697723 -0.04195497620993471
thorax -8.112714148067507 6.506489908335562 -5.698780087300498
lowerneck -7.160954242831734 -21.028679068920802 -6.304493627345644
upperneck 15.775176413819091 -29.343568991510534 3.4944636193374423
head 7.200742728396715 -14.466341004076446 -0.7996654894249532
lclavicle -5.019190960750157e-15 -9.948120866623357e-15
lhumerus 68.22449335277777 9.910842625729416 60.72091896444633
lradius 76.99191664779971
lwrist 17.36117831720242
lhand -23.509754355287356 26.159221219948115
lfingers 7.125020000000001
lthumb -171.04535186761345 -226.4053240750693
rclavicle -5.0213120731985564e-15 -1.0214080538711649e-14
rhumerus 102.3345701089863 18.080347717167985 -54.145907305908906
rradius 46.135841014815725
rwrist 0.1088453892601855
rhand -47.40498305745831 31.381649353933472
rfingers 7.125020000000001
rthumb -21.96070553743576 5.9364125159347125
